<svg xmlns="http://www.w3.org/2000/svg" viewBox="0 0 659 231" width="659" height="231" role="img" aria-label="Ordum">

  <rect x="40" y="40" width="150.39999999999998" height="150.39999999999998" rx="8" ry="8" fill="#FFFFFF"/>
  <path d="M54.40 3.04L54.40 3.04Q39.04 3.04 28.24-3.20Q17.44-9.44 11.84-19.60Q6.24-29.76 6.24-41.76L6.24-41.76L6.24-45.44Q6.24-57.76 12.08-68.08Q17.92-78.40 28.72-84.56Q39.52-90.72 54.40-90.72L54.40-90.72Q69.28-90.72 80.16-84.56Q91.04-78.40 96.88-68.08Q102.72-57.76 102.72-45.44L102.72-45.44L102.72-41.76Q102.72-29.76 97.04-19.60Q91.36-9.44 80.64-3.20Q69.92 3.04 54.40 3.04ZM54.40-18.56L54.40-18.56Q65.44-18.56 71.28-25.68Q77.12-32.80 77.12-43.52L77.12-43.52Q77.12-54.56 71.12-61.84Q65.12-69.12 54.40-69.12L54.40-69.12Q43.68-69.12 37.76-61.84Q31.84-54.56 31.84-43.52L31.84-43.52Q31.84-32.80 37.60-25.68Q43.36-18.56 54.40-18.56Z" fill="#2D0F5F" transform="translate(60.72 159.04)"/>
  <path d="M37.28 0L11.68 0L11.68-87.68L32-87.68L32-57.92Q33.44-72.80 41.20-80.80Q48.96-88.80 62.40-88.80L62.40-88.80L65.76-88.80L65.76-66.72L59.36-66.72Q48.64-66.72 42.96-60.96Q37.28-55.20 37.28-44.64L37.28-44.64L37.28 0ZM114.72 2.88L114.72 2.88Q102.40 2.88 93.04-2.96Q83.68-8.80 78.40-18.88Q73.12-28.96 73.12-41.60L73.12-41.60L73.12-45.28Q73.12-57.92 78.08-68.16Q83.04-78.40 92.24-84.32Q101.44-90.24 113.76-90.24L113.76-90.24Q132.96-90.24 142.08-75.68L142.08-75.68L142.08-116.80L167.84-116.80L167.84 0L147.52 0L147.52-18.40Q143.20-8 134.72-2.56Q126.24 2.88 114.72 2.88ZM121.12-18.56L121.12-18.56Q129.92-18.56 136.32-24.48Q142.72-30.40 142.72-41.28L142.72-41.28L142.72-47.20Q142.72-54.08 139.68-58.96Q136.64-63.84 131.68-66.40Q126.72-68.96 120.96-68.96L120.96-68.96Q111.20-68.96 104.96-61.92Q98.72-54.88 98.72-43.52L98.72-43.52Q98.72-32 105.04-25.28Q111.36-18.56 121.12-18.56ZM221.76 2.72L220.64 2.72Q205.44 2.72 197.28-7.04Q189.12-16.80 189.12-36.80L189.12-36.80L189.12-87.68L214.72-87.68L214.72-35.52Q214.72-28.48 218.72-24.32Q222.72-20.16 229.44-20.16L229.44-20.16Q236.32-20.16 240.64-24.48Q244.96-28.80 244.96-36.16L244.96-36.16L244.96-87.68L270.56-87.68L270.56 0L250.24 0L250.24-20.48Q244.80 2.72 221.76 2.72L221.76 2.72ZM319.84 0L294.24 0L294.24-87.68L314.56-87.68L314.56-65.44Q319.68-90.40 343.04-90.40L343.04-90.40L344.16-90.40Q364.48-90.40 371.04-71.36L371.04-71.36Q377.76-90.40 398.08-90.40L398.08-90.40L399.20-90.40Q414.08-90.40 421.92-80.16Q429.76-69.92 429.76-49.92L429.76-49.92L429.76 0L404.16 0L404.16-51.36Q404.16-58.56 400.40-63.04Q396.64-67.52 389.76-67.52L389.76-67.52Q382.88-67.52 378.88-62.88Q374.88-58.24 374.88-50.88L374.88-50.88L374.88 0L349.12 0L349.12-51.36Q349.12-58.56 345.36-63.04Q341.60-67.52 334.88-67.52L334.88-67.52Q327.84-67.52 323.84-62.88Q319.84-58.24 319.84-50.88L319.84-50.88L319.84 0Z" fill="#FFFFFF" transform="translate(188.32 172.16)"/>
</svg>